<?xml version="1.0" standalone="no"?><!DOCTYPE svg PUBLIC "-//W3C//DTD SVG 1.1//EN" "http://www.w3.org/Graphics/SVG/1.1/DTD/svg11.dtd"><svg class="icon" height="512" viewBox="0 0 1024 1024" version="1.1" xmlns="http://www.w3.org/2000/svg"><path d="M579.84 949.12a43.52 43.52 0 0 1-59.52-4.48 39.68 39.68 0 0 1 3.2-56.32 43.52 43.52 0 0 1 59.52 4.48 39.68 39.68 0 0 1-3.2 56.32zM887.68 697.6a43.52 43.52 0 0 1-59.52-4.48A39.68 39.68 0 0 1 832 640a43.52 43.52 0 0 1 59.52 4.48 39.68 39.68 0 0 1 0 56.32zM394.24 924.8l22.4 25.6 499.2-408.32-19.84-25.6zM440.32 650.24l124.8-180.48 168.32 42.24 17.28 85.12h3.84l42.88-34.56V462.08l-128-81.92-32-128 134.4 23.04 154.88 64 33.28-28.8-161.28-94.08A784.64 784.64 0 0 0 640 165.76l-32-5.76a90.24 90.24 0 0 1-111.36 56.32 88.32 88.32 0 0 1-53.76-44.8C332.16 198.4 64 268.8 64 268.8l11.52 39.04L448 248.32l5.76 186.24-106.24 221.44 128 160 50.56-40.96zM579.84 88.32A72.96 72.96 0 0 0 530.56 64a71.68 71.68 0 0 0-77.44 64v5.76a72.32 72.32 0 0 0 144.64 0 67.84 67.84 0 0 0-17.92-45.44z" /></svg>